<?xml version="1.0" standalone="no"?>
<!DOCTYPE svg PUBLIC "-//W3C//DTD SVG 20010904//EN"
 "http://www.w3.org/TR/2001/REC-SVG-20010904/DTD/svg10.dtd">
<svg version="1.0" xmlns="http://www.w3.org/2000/svg"
 width="512.000000pt" height="512.000000pt" viewBox="0 0 512.000000 512.000000"
 preserveAspectRatio="xMidYMid meet">
<metadata>
Created by potrace 1.14, written by Peter Selinger 2001-2017
</metadata>
<g transform="translate(0.000000,512.000000) scale(0.100000,-0.100000)"
fill="#000000" stroke="none">
<path d="M2110 5100 c-11 -11 -20 -23 -21 -27 -1 -5 -2 -29 -4 -54 -10 -166
-35 -236 -145 -409 -136 -212 -181 -345 -175 -516 2 -54 29 -84 74 -84 28 0
70 31 72 53 9 139 17 192 34 233 8 19 12 34 9 34 -9 0 47 100 112 200 105 162
148 268 160 398 13 130 7 163 -31 180 -37 17 -62 15 -85 -8z"/>
<path d="M1661 4787 c-14 -6 -36 -32 -49 -57 -14 -25 -48 -81 -77 -125 -69
-104 -128 -222 -141 -280 -19 -80 -30 -171 -29 -220 1 -47 6 -61 24 -76 50
-41 120 -9 122 55 4 166 40 272 151 442 113 172 124 204 84 247 -27 30 -48 33
-85 14z"/>
<path d="M2447 4780 c-15 -12 -27 -27 -27 -33 0 -7 -32 -61 -71 -122 -97 -151
-133 -225 -158 -325 -38 -155 -32 -266 14 -284 42 -16 103 11 106 47 0 7 3 41
5 77 9 134 40 216 144 380 114 178 125 209 93 249 -27 32 -73 37 -106 11z"/>
<path d="M355 3832 c-11 -2 -35 -15 -53 -29 -67 -50 -63 77 -60 -1762 l3
-1666 29 -70 c27 -66 74 -136 121 -179 35 -33 119 -83 170 -102 48 -18 108
-19 1329 -22 1105 -2 1288 0 1338 13 160 41 283 153 340 312 18 50 21 84 24
253 1 107 3 196 3 197 1 1 20 -5 43 -13 100 -35 343 -52 438 -30 14 4 39 9 55
11 84 15 244 86 334 148 79 54 188 165 244 250 72 107 100 169 139 312 22 77
23 95 23 535 0 502 -1 517 -63 675 -149 382 -512 622 -922 609 -94 -3 -122 -7
-217 -33 -40 -10 -73 -18 -74 -17 0 0 -1 114 -2 251 -2 232 -3 253 -22 285
-12 19 -36 43 -55 55 -35 20 -44 20 -1590 20 -855 0 -1564 -1 -1575 -3z m3433
-1167 c20 -22 27 -24 114 -23 79 1 101 -3 149 -24 72 -33 133 -94 167 -166
l27 -57 2 -375 c3 -411 1 -432 -53 -517 -62 -98 -160 -148 -284 -147 -144 2
-279 116 -306 260 -13 70 -11 916 2 944 15 30 55 69 109 103 50 32 47 32 73 2z"/>
</g>
</svg>
